<svg preserveAspectRatio="xMidYMid meet" data-bbox="0 0.819 183.287 56.882" viewBox="0 0 183.283 58.52" height="58.52" width="183.283" xmlns="http://www.w3.org/2000/svg" data-type="ugc" role="presentation" aria-hidden="true" aria-label="">
    <g>
        <g>
            <g>
                <path fill="#0b2949" d="M10.725 25.088a1.033 1.033 0 0 1 1.113-1.111 1.033 1.033 0 0 1 1.112 1.112v7.865a.953.953 0 0 1-1.112 1.033H3.416Q0 33.987 0 30.571v-3.179Q0 26.2 1.112 26.2a1.033 1.033 0 0 1 1.112 1.192v3.257q0 1.112 1.192 1.112h7.23zM5.482 35.337l.4-.4.556-.159.556.159a1.033 1.033 0 0 1 .4.4 1.112 1.112 0 0 1 .159.556 1.033 1.033 0 0 1-.159.556.953.953 0 0 1-.4.4l-.556.159-.556-.159a1.033 1.033 0 0 1-.4-.4 1.112 1.112 0 0 1-.159-.556 1.271 1.271 0 0 1 .159-.556z"></path>
                <path fill="#0b2949" d="M24.708 31.683q.556 0 .556 1.112t-.556 1.112h-1.747q-.238 3.019-3.416 3.019h-.874a1.033 1.033 0 0 1-1.112-1.033 1.033 1.033 0 0 1 1.112-1.112h.871a.953.953 0 0 0 1.112-.794h-3.1q-3.416 0-3.416-3.416v-3.019q0-3.416 3.416-3.416h1.907q3.416 0 3.416 3.416v4.131zm-4.052-4.211q0-1.112-1.192-1.112h-1.906a1.033 1.033 0 0 0-1.116 1.113v3.019q0 1.192 1.112 1.192h3.1z"></path>
                <path fill="#0b2949" d="M38.134 24.14a1.033 1.033 0 0 1 1.112 1.112v5.243q0 3.5-3.416 3.5h-1.986a1.033 1.033 0 0 1-1.112-1.112 1.033 1.033 0 0 1-1.192 1.112h-2.86a.953.953 0 0 1-1.112-1.112 1.033 1.033 0 0 1-1.192 1.112h-2.3q-.556 0-.556-1.112t.556-1.112h2.3v-6.523a.953.953 0 0 1 1.112-1.108 1.033 1.033 0 0 1 1.192 1.192v6.435h2.86v-6.519a.953.953 0 0 1 1.112-1.108 1.033 1.033 0 0 1 1.192 1.192v6.435h2.066a1.033 1.033 0 0 0 1.192-1.192v-5.247a1.033 1.033 0 0 1 1.032-1.188z"></path>
                <path fill="#0b2949" d="M44.49 31.683q.556 0 .556 1.112t-.556 1.112h-.556q-3.416 0-3.416-3.416v-8.1q0-1.192 1.112-1.192t1.112 1.192v8.262q0 1.112 1.192 1.112z"></path>
                <path fill="#0b2949" d="M51.799 24.14q4.29 0 4.29 5.323v3.416a1.033 1.033 0 0 1-1.112 1.112H44.013q-.556 0-.556-1.112t.556-1.112h9.851v-2.3q0-3.1-1.986-3.1h-4.21a.953.953 0 0 1-1.111-1.119.953.953 0 0 1 1.111-1.108z"></path>
            </g>
            <g>
                <path fill="#0b2949" d="M122.189 33.987a1.033 1.033 0 0 1-1.112-1.192V22.07a1.2 1.2 0 1 1 2.383.079v1.827h2.7q3.5 0 3.5 3.575v5.323a1.192 1.192 0 1 1-2.3 0v-5.4a1.033 1.033 0 0 0-1.192-1.192h-2.7v6.515a1.033 1.033 0 0 1-1.271 1.192z"></path>
                <path fill="#0b2949" d="M140.621 32.875q0 1.192-1.112 1.192a1.033 1.033 0 0 1-1.192-1.192v-1.986h-3.813v1.907a1.192 1.192 0 1 1-2.3 0v-5.244q0-3.575 3.5-3.575h3.806a1.033 1.033 0 0 1 1.192 1.112zm-2.3-4.29V26.28h-2.622a1.033 1.033 0 0 0-1.192 1.192v1.108z"></path>
                <path fill="#0b2949" d="M150.71 25.168a1.033 1.033 0 0 1-1.112 1.192h-3.1q-1.192 0-1.192.794t1.192.715h.715q3.5.079 3.416 3.1t-3.416 3.1h-3.1a.953.953 0 0 1-1.108-1.033q0-1.192 1.112-1.192h3.1q1.112 0 1.192-.794t-1.112-.794h-.715q-3.5 0-3.5-3.1t3.416-3.019h3.1a1.033 1.033 0 0 1 1.112 1.033z"></path>
                <path fill="#0b2949" d="M153.173 27.477q0-3.5 3.5-3.5h1.509q3.5 0 3.5 3.5v3.019q0 3.575-3.5 3.575h-1.589q-3.416 0-3.416-3.5zm3.416-1.192a1.033 1.033 0 0 0-1.116 1.108v3.019q0 1.192 1.112 1.192h1.589a1.033 1.033 0 0 0 1.192-1.192v-3.019q0-1.112-1.192-1.112z"></path>
                <path fill="#0b2949" d="M171.288 23.976a1.033 1.033 0 0 1 1.112 1.192v7.708a1.033 1.033 0 0 1-1.192 1.112h-3.893q-3.5 0-3.5-3.575v-5.324a1.192 1.192 0 1 1 2.3 0v5.323a1.033 1.033 0 0 0 1.192 1.192h2.781v-6.436a1.033 1.033 0 0 1 1.192-1.192z"></path>
                <path fill="#0b2949" d="M175.816 33.987a1.033 1.033 0 0 1-1.112-1.192V22.07a1.2 1.2 0 1 1 2.383.079v1.827h2.7q3.5 0 3.5 3.575v3.019q0 3.5-3.5 3.5zm3.893-2.3q1.192 0 1.192-1.112v-3.1a1.033 1.033 0 0 0-1.192-1.192h-2.7v5.4z"></path>
            </g>
            <path stroke-width="1.557" stroke-miterlimit="10" stroke="#0b2949" fill="none" d="M113.927 40.979a5.561 5.561 0 0 1-2.463 4.29L91.046 57.106a5.561 5.561 0 0 1-5.005 0L65.703 45.348a5.561 5.561 0 0 1-2.463-4.29v-23.6a5.561 5.561 0 0 1 2.463-4.29L86.04 1.414a5.561 5.561 0 0 1 5.005 0l20.419 11.754a5.561 5.561 0 0 1 2.463 4.29z"></path>
            <g>
                <path stroke-width="3.178" stroke-linejoin="round" stroke-linecap="round" stroke="#de3e4d" fill="none" d="M76.587 17.144l4.528 2.542v6.991l4.449 2.463-4.449 2.542v7.071l-4.528 2.543"></path>
                <path stroke-width="3.178" stroke-linejoin="round" stroke-linecap="round" stroke="#de3e4d" fill="none" d="M100.501 17.144l-4.687 2.542v6.991l-4.132 2.467 4.131 2.542v7.071l4.687 2.542"></path>
            </g>
        </g>
    </g>
</svg>